<svg width="1132" height="181" viewBox="0 0 1132 181" fill="none" xmlns="http://www.w3.org/2000/svg">
<g filter="url(#filter0_i)">
<path d="M24.584 42.75C35.834 42.75 45.084 35.5 45.084 26.5C45.084 17.5 35.834 9.99999 24.584 9.99999C13.334 9.99999 4.08398 17.5 4.08398 26.5C4.08398 35.5 13.334 42.75 24.584 42.75ZM0.0839852 92L8.33399 98.5V177H41.084V59.25L0.0839852 92ZM135.973 55.75C117.223 55.75 96.4727 62.75 85.2227 70.25L71.2227 59.25H67.2227V177H99.9727V95.25L108.223 88.5L95.4727 78.5C101.473 69 118.223 59.25 131.473 59.25C158.473 59.25 152.973 101.25 152.973 114.75L153.223 177H185.973V114.75C185.973 72.5 165.223 55.75 135.973 55.75ZM276.842 55.75C258.092 55.75 237.342 62.75 226.092 70.25L212.092 59.25H208.092V177H240.842V95.25L249.092 88.5L236.342 78.5C242.342 69 259.092 59.25 272.342 59.25C299.342 59.25 293.842 101.25 293.842 114.75L294.092 177H326.842V114.75C326.842 72.5 306.092 55.75 276.842 55.75ZM475.961 151.25C475.461 161.5 462.461 166 451.461 166C419.711 166 386.461 139.5 373.711 118H496.211C496.211 85.25 464.961 55.75 422.461 55.75C380.211 55.75 348.961 85.25 348.961 118C348.961 151 380.211 180.25 422.461 180.25C449.461 180.25 463.461 170.5 481.711 156.75L476.961 150.5L475.961 151.25ZM393.711 70.25C424.211 70.25 455.711 94.5 469.211 114.5H371.711C368.461 108 365.961 101 365.961 93.75C365.961 79.75 375.961 70.25 393.711 70.25ZM554.645 65.75V59.25H521.895V141L513.645 147.5L550.395 177H554.645V130C545.395 119.75 538.145 106 538.145 93.25C538.145 78.5 549.145 69.25 567.645 69.25C581.895 69.25 600.895 76.75 612.395 83V59.25C603.645 57.5 595.645 56.5 588.395 56.5C575.395 56.5 564.145 59.5 554.645 65.75ZM786.195 97.5C771.695 97.5 757.195 99.75 744.195 104.75C736.945 99 729.195 90.5 729.195 81.75C729.195 69 745.445 65.25 758.445 65.25C781.695 65.25 807.945 75 824.945 87.25L844.195 71.75C828.695 60.75 806.695 56 786.195 56C756.695 56 712.695 69 712.695 97.5C712.695 126 756.695 138.75 786.445 138.75C800.695 138.75 815.445 136.5 828.445 131.5C835.695 137.25 843.445 145.75 843.445 154.5C843.445 167.25 827.195 171 814.195 171C786.945 171 751.445 156.75 736.195 138.5L717.445 153.5C729.945 172.5 761.195 180.25 786.195 180.25C815.945 180.25 859.945 167.5 859.945 138.75C859.945 110.25 815.945 97.5 786.195 97.5ZM747.695 107.5C751.195 107 754.695 106.75 758.445 106.75C781.945 106.75 808.945 117.25 824.695 128.75C821.195 129.25 817.695 129.5 813.945 129.5C790.445 129.5 763.445 119 747.695 107.5ZM953.955 55.75C911.705 55.75 880.455 85.25 880.455 118C880.455 151 911.705 180.25 953.955 180.25C996.455 180.25 1027.71 151 1027.71 118C1027.71 85.25 996.455 55.75 953.955 55.75ZM981.955 166.25C942.455 166.25 896.955 125.5 896.955 94.5C896.955 80 907.455 69.75 926.205 69.75C965.705 69.75 1011.21 110.75 1011.21 141.5C1011.21 156 1000.71 166.25 981.955 166.25ZM1074.64 143.5C1074.64 131.25 1082.14 119 1090.89 109.5V0.249996H1086.64L1049.89 29.75L1058.14 36.25V121.25C1058.14 153.75 1091.14 180.25 1131.64 180.25V161.25C1123.14 164.5 1113.64 167 1103.89 167C1085.89 167 1074.64 158 1074.64 143.5Z" fill="#FAFA33" fill-opacity="0.05"/>
<path d="M24.584 42.75C35.834 42.75 45.084 35.5 45.084 26.5C45.084 17.5 35.834 9.99999 24.584 9.99999C13.334 9.99999 4.08398 17.5 4.08398 26.5C4.08398 35.5 13.334 42.75 24.584 42.75ZM0.0839852 92L8.33399 98.5V177H41.084V59.25L0.0839852 92ZM135.973 55.75C117.223 55.75 96.4727 62.75 85.2227 70.25L71.2227 59.25H67.2227V177H99.9727V95.25L108.223 88.5L95.4727 78.5C101.473 69 118.223 59.25 131.473 59.25C158.473 59.25 152.973 101.25 152.973 114.75L153.223 177H185.973V114.75C185.973 72.5 165.223 55.75 135.973 55.75ZM276.842 55.75C258.092 55.75 237.342 62.75 226.092 70.25L212.092 59.25H208.092V177H240.842V95.25L249.092 88.5L236.342 78.5C242.342 69 259.092 59.25 272.342 59.25C299.342 59.25 293.842 101.25 293.842 114.75L294.092 177H326.842V114.75C326.842 72.5 306.092 55.75 276.842 55.75ZM475.961 151.25C475.461 161.5 462.461 166 451.461 166C419.711 166 386.461 139.5 373.711 118H496.211C496.211 85.25 464.961 55.75 422.461 55.75C380.211 55.75 348.961 85.25 348.961 118C348.961 151 380.211 180.25 422.461 180.25C449.461 180.25 463.461 170.5 481.711 156.75L476.961 150.5L475.961 151.25ZM393.711 70.25C424.211 70.25 455.711 94.5 469.211 114.5H371.711C368.461 108 365.961 101 365.961 93.75C365.961 79.75 375.961 70.25 393.711 70.25ZM554.645 65.75V59.25H521.895V141L513.645 147.5L550.395 177H554.645V130C545.395 119.75 538.145 106 538.145 93.25C538.145 78.5 549.145 69.25 567.645 69.25C581.895 69.25 600.895 76.75 612.395 83V59.25C603.645 57.5 595.645 56.5 588.395 56.5C575.395 56.5 564.145 59.5 554.645 65.75ZM786.195 97.5C771.695 97.5 757.195 99.75 744.195 104.75C736.945 99 729.195 90.5 729.195 81.75C729.195 69 745.445 65.25 758.445 65.25C781.695 65.25 807.945 75 824.945 87.25L844.195 71.75C828.695 60.75 806.695 56 786.195 56C756.695 56 712.695 69 712.695 97.5C712.695 126 756.695 138.75 786.445 138.75C800.695 138.75 815.445 136.5 828.445 131.5C835.695 137.25 843.445 145.75 843.445 154.5C843.445 167.25 827.195 171 814.195 171C786.945 171 751.445 156.75 736.195 138.5L717.445 153.5C729.945 172.5 761.195 180.25 786.195 180.25C815.945 180.25 859.945 167.5 859.945 138.75C859.945 110.25 815.945 97.5 786.195 97.5ZM747.695 107.5C751.195 107 754.695 106.75 758.445 106.75C781.945 106.75 808.945 117.25 824.695 128.75C821.195 129.25 817.695 129.5 813.945 129.5C790.445 129.5 763.445 119 747.695 107.5ZM953.955 55.75C911.705 55.75 880.455 85.25 880.455 118C880.455 151 911.705 180.25 953.955 180.25C996.455 180.25 1027.71 151 1027.71 118C1027.71 85.25 996.455 55.75 953.955 55.75ZM981.955 166.25C942.455 166.25 896.955 125.5 896.955 94.5C896.955 80 907.455 69.75 926.205 69.75C965.705 69.75 1011.21 110.75 1011.21 141.5C1011.21 156 1000.71 166.25 981.955 166.25ZM1074.64 143.5C1074.64 131.25 1082.14 119 1090.89 109.5V0.249996H1086.64L1049.89 29.75L1058.14 36.25V121.25C1058.14 153.75 1091.14 180.25 1131.64 180.25V161.25C1123.14 164.5 1113.64 167 1103.89 167C1085.89 167 1074.64 158 1074.64 143.5Z" fill="url(#paint0_linear)"/>
<path d="M24.584 42.75C35.834 42.75 45.084 35.5 45.084 26.5C45.084 17.5 35.834 9.99999 24.584 9.99999C13.334 9.99999 4.08398 17.5 4.08398 26.5C4.08398 35.5 13.334 42.75 24.584 42.75ZM0.0839852 92L8.33399 98.5V177H41.084V59.25L0.0839852 92ZM135.973 55.75C117.223 55.75 96.4727 62.75 85.2227 70.25L71.2227 59.25H67.2227V177H99.9727V95.25L108.223 88.5L95.4727 78.5C101.473 69 118.223 59.25 131.473 59.25C158.473 59.25 152.973 101.25 152.973 114.75L153.223 177H185.973V114.75C185.973 72.5 165.223 55.75 135.973 55.75ZM276.842 55.75C258.092 55.75 237.342 62.75 226.092 70.25L212.092 59.25H208.092V177H240.842V95.25L249.092 88.5L236.342 78.5C242.342 69 259.092 59.25 272.342 59.25C299.342 59.25 293.842 101.25 293.842 114.75L294.092 177H326.842V114.75C326.842 72.5 306.092 55.75 276.842 55.75ZM475.961 151.25C475.461 161.5 462.461 166 451.461 166C419.711 166 386.461 139.5 373.711 118H496.211C496.211 85.25 464.961 55.75 422.461 55.75C380.211 55.75 348.961 85.25 348.961 118C348.961 151 380.211 180.25 422.461 180.25C449.461 180.25 463.461 170.5 481.711 156.75L476.961 150.5L475.961 151.25ZM393.711 70.25C424.211 70.25 455.711 94.5 469.211 114.5H371.711C368.461 108 365.961 101 365.961 93.75C365.961 79.75 375.961 70.25 393.711 70.25ZM554.645 65.75V59.25H521.895V141L513.645 147.5L550.395 177H554.645V130C545.395 119.75 538.145 106 538.145 93.25C538.145 78.5 549.145 69.25 567.645 69.25C581.895 69.25 600.895 76.75 612.395 83V59.25C603.645 57.5 595.645 56.5 588.395 56.5C575.395 56.5 564.145 59.5 554.645 65.75ZM786.195 97.5C771.695 97.5 757.195 99.75 744.195 104.75C736.945 99 729.195 90.5 729.195 81.75C729.195 69 745.445 65.25 758.445 65.25C781.695 65.25 807.945 75 824.945 87.25L844.195 71.75C828.695 60.75 806.695 56 786.195 56C756.695 56 712.695 69 712.695 97.5C712.695 126 756.695 138.75 786.445 138.75C800.695 138.75 815.445 136.5 828.445 131.5C835.695 137.25 843.445 145.75 843.445 154.5C843.445 167.25 827.195 171 814.195 171C786.945 171 751.445 156.75 736.195 138.5L717.445 153.5C729.945 172.5 761.195 180.25 786.195 180.25C815.945 180.25 859.945 167.5 859.945 138.75C859.945 110.25 815.945 97.5 786.195 97.5ZM747.695 107.5C751.195 107 754.695 106.75 758.445 106.75C781.945 106.75 808.945 117.25 824.695 128.75C821.195 129.25 817.695 129.5 813.945 129.5C790.445 129.5 763.445 119 747.695 107.5ZM953.955 55.75C911.705 55.75 880.455 85.25 880.455 118C880.455 151 911.705 180.25 953.955 180.25C996.455 180.25 1027.71 151 1027.71 118C1027.71 85.25 996.455 55.75 953.955 55.75ZM981.955 166.25C942.455 166.25 896.955 125.5 896.955 94.5C896.955 80 907.455 69.75 926.205 69.75C965.705 69.75 1011.21 110.75 1011.21 141.5C1011.21 156 1000.71 166.25 981.955 166.25ZM1074.64 143.5C1074.64 131.25 1082.14 119 1090.89 109.5V0.249996H1086.64L1049.89 29.75L1058.14 36.25V121.25C1058.14 153.75 1091.14 180.25 1131.64 180.25V161.25C1123.14 164.5 1113.64 167 1103.89 167C1085.89 167 1074.64 158 1074.64 143.5Z" fill="url(#paint1_linear)"/>
<path d="M24.584 42.75C35.834 42.75 45.084 35.5 45.084 26.5C45.084 17.5 35.834 9.99999 24.584 9.99999C13.334 9.99999 4.08398 17.5 4.08398 26.5C4.08398 35.5 13.334 42.75 24.584 42.75ZM0.0839852 92L8.33399 98.5V177H41.084V59.25L0.0839852 92ZM135.973 55.75C117.223 55.75 96.4727 62.75 85.2227 70.25L71.2227 59.25H67.2227V177H99.9727V95.25L108.223 88.5L95.4727 78.5C101.473 69 118.223 59.25 131.473 59.25C158.473 59.25 152.973 101.25 152.973 114.75L153.223 177H185.973V114.75C185.973 72.5 165.223 55.75 135.973 55.75ZM276.842 55.75C258.092 55.75 237.342 62.75 226.092 70.25L212.092 59.25H208.092V177H240.842V95.25L249.092 88.5L236.342 78.5C242.342 69 259.092 59.25 272.342 59.25C299.342 59.25 293.842 101.25 293.842 114.75L294.092 177H326.842V114.75C326.842 72.5 306.092 55.75 276.842 55.75ZM475.961 151.25C475.461 161.5 462.461 166 451.461 166C419.711 166 386.461 139.5 373.711 118H496.211C496.211 85.25 464.961 55.75 422.461 55.75C380.211 55.75 348.961 85.25 348.961 118C348.961 151 380.211 180.25 422.461 180.25C449.461 180.25 463.461 170.5 481.711 156.75L476.961 150.5L475.961 151.25ZM393.711 70.25C424.211 70.25 455.711 94.5 469.211 114.5H371.711C368.461 108 365.961 101 365.961 93.75C365.961 79.75 375.961 70.25 393.711 70.25ZM554.645 65.75V59.25H521.895V141L513.645 147.5L550.395 177H554.645V130C545.395 119.75 538.145 106 538.145 93.25C538.145 78.5 549.145 69.25 567.645 69.25C581.895 69.25 600.895 76.75 612.395 83V59.25C603.645 57.5 595.645 56.5 588.395 56.5C575.395 56.5 564.145 59.5 554.645 65.75ZM786.195 97.5C771.695 97.5 757.195 99.75 744.195 104.75C736.945 99 729.195 90.5 729.195 81.75C729.195 69 745.445 65.25 758.445 65.25C781.695 65.25 807.945 75 824.945 87.25L844.195 71.75C828.695 60.75 806.695 56 786.195 56C756.695 56 712.695 69 712.695 97.5C712.695 126 756.695 138.75 786.445 138.75C800.695 138.75 815.445 136.5 828.445 131.5C835.695 137.25 843.445 145.75 843.445 154.5C843.445 167.25 827.195 171 814.195 171C786.945 171 751.445 156.75 736.195 138.5L717.445 153.5C729.945 172.5 761.195 180.25 786.195 180.25C815.945 180.25 859.945 167.5 859.945 138.75C859.945 110.25 815.945 97.5 786.195 97.5ZM747.695 107.5C751.195 107 754.695 106.75 758.445 106.75C781.945 106.75 808.945 117.25 824.695 128.75C821.195 129.25 817.695 129.5 813.945 129.5C790.445 129.5 763.445 119 747.695 107.5ZM953.955 55.75C911.705 55.75 880.455 85.25 880.455 118C880.455 151 911.705 180.25 953.955 180.25C996.455 180.25 1027.71 151 1027.71 118C1027.71 85.25 996.455 55.75 953.955 55.75ZM981.955 166.25C942.455 166.25 896.955 125.5 896.955 94.5C896.955 80 907.455 69.75 926.205 69.75C965.705 69.75 1011.21 110.75 1011.21 141.5C1011.21 156 1000.71 166.25 981.955 166.25ZM1074.64 143.5C1074.64 131.25 1082.14 119 1090.89 109.5V0.249996H1086.64L1049.89 29.75L1058.14 36.25V121.25C1058.14 153.75 1091.14 180.25 1131.64 180.25V161.25C1123.14 164.5 1113.64 167 1103.89 167C1085.89 167 1074.64 158 1074.64 143.5Z" fill="url(#paint2_linear)" fill-opacity="0.5"/>
</g>
<defs>
<filter id="filter0_i" x="0.0839844" y="0.25" width="1131.55" height="184" filterUnits="userSpaceOnUse" color-interpolation-filters="sRGB">
<feFlood flood-opacity="0" result="BackgroundImageFix"/>
<feBlend mode="normal" in="SourceGraphic" in2="BackgroundImageFix" result="shape"/>
<feColorMatrix in="SourceAlpha" type="matrix" values="0 0 0 0 0 0 0 0 0 0 0 0 0 0 0 0 0 0 127 0" result="hardAlpha"/>
<feOffset dy="4"/>
<feGaussianBlur stdDeviation="2"/>
<feComposite in2="hardAlpha" operator="arithmetic" k2="-1" k3="1"/>
<feColorMatrix type="matrix" values="0 0 0 0 0 0 0 0 0 0 0 0 0 0 0 0 0 0 0.25 0"/>
<feBlend mode="normal" in2="shape" result="effect1_innerShadow"/>
</filter>
<linearGradient id="paint0_linear" x1="565.5" y1="-25" x2="565.5" y2="275" gradientUnits="userSpaceOnUse">
<stop stop-color="#FF3131"/>
<stop offset="1" stop-color="white" stop-opacity="0"/>
</linearGradient>
<linearGradient id="paint1_linear" x1="565.5" y1="-25" x2="565.5" y2="275" gradientUnits="userSpaceOnUse">
<stop stop-color="#1434A4"/>
<stop offset="1" stop-color="white" stop-opacity="0"/>
</linearGradient>
<linearGradient id="paint2_linear" x1="565.5" y1="-25" x2="565.5" y2="275" gradientUnits="userSpaceOnUse">
<stop/>
<stop offset="1" stop-color="white" stop-opacity="0"/>
</linearGradient>
</defs>
</svg>
